<?xml version="1.0" encoding="utf-8"?>
<!-- Generator: Adobe Illustrator 23.1.0, SVG Export Plug-In . SVG Version: 6.00 Build 0)  -->
<svg version="1.1" id="Capa_1" xmlns="http://www.w3.org/2000/svg" xmlns:xlink="http://www.w3.org/1999/xlink" x="0px" y="0px"
	 viewBox="0 0 1024 276.7" style="enable-background:new 0 0 1024 276.7;" xml:space="preserve">
<style type="text/css">
	.st0{fill:#FFD700;}
</style>
<path class="st0" d="M375.1,242.7c14.1-0.5,28.6-0.5,43.2-0.5V43.2h44.9l0-43.2h-133v43.2h44.9V242.7z"/>
<polygon class="st0" points="49,163.5 117.3,163.5 117.3,113.6 49,113.6 49,49.9 139.5,49.9 139.5,0 0,0 0,276.7 49,276.7 "/>
<path class="st0" d="M792.1,251.3c13.8,0.8,28.4,1.6,42.4,3.2V0h-42.4V251.3z"/>
<path class="st0" d="M1024,0h-47.3l-30.3,72.7L918.1,0h-46.5l50.3,130l-55.7,126.8c15.7,2.2,30.8,3,46.5,5.7l31.6-73.5l31.1,80
	c16.2,2.7,32.4,5.7,48.6,7.8l-54.9-145.1L1024,0L1024,0z"/>
<polygon class="st0" points="491.1,241.2 533.5,241.2 533.5,143.1 592.7,143.1 592.7,99.9 533.5,99.9 533.5,44.7 611.9,44.7 
	611.9,1.5 491.1,1.5 "/>
<path class="st0" d="M682.1,0h-43.2v242.7c39.5,0.8,78.1,3.2,116.8,5.7v-42.7c-24.1-1.3-48.9-3.2-73.5-3.8V0z"/>
<rect x="185.7" y="209.4" transform="matrix(-0.999 4.488190e-02 -4.488190e-02 -0.999 494.1575 451.1434)" class="st0" width="112.6" height="43.4"/>
<rect x="258.6" y="0" class="st0" width="41.8" height="213.2"/>
<rect x="184.9" y="0" class="st0" width="42.2" height="217.2"/>
<rect x="184.9" y="197.8" class="st0" width="15.7" height="54.9"/>
<rect x="184.9" y="246.7" class="st0" width="8.1" height="8.1"/>
<rect x="184.9" y="250.1" class="st0" width="2.8" height="5.1"/>
<rect x="293.4" y="207.5" class="st0" width="6.9" height="42.6"/>
</svg>
